<svg width="750" height="750" viewBox="0 0 750 750" fill="none" xmlns="http://www.w3.org/2000/svg">
<rect width="750" height="750" />
<path d="M295.656 166.281C295.281 169.344 294.516 172.203 293.359 174.859C292.203 177.484 290.672 179.781 288.766 181.75C286.859 183.688 284.594 185.203 281.969 186.297C279.375 187.391 276.453 187.938 273.203 187.938C270.484 187.938 268.016 187.531 265.797 186.719C263.609 185.875 261.656 184.734 259.938 183.297C258.25 181.859 256.781 180.172 255.531 178.234C254.281 176.297 253.25 174.219 252.438 172C251.625 169.75 251.016 167.422 250.609 165.016C250.234 162.609 250.031 160.219 250 157.844V147.953C250.031 145.578 250.234 143.188 250.609 140.781C251.016 138.375 251.625 136.062 252.438 133.844C253.25 131.594 254.281 129.5 255.531 127.562C256.781 125.625 258.25 123.938 259.938 122.5C261.656 121.031 263.609 119.891 265.797 119.078C268.016 118.234 270.484 117.812 273.203 117.812C276.516 117.812 279.469 118.359 282.062 119.453C284.688 120.547 286.953 122.078 288.859 124.047C290.766 125.984 292.281 128.281 293.406 130.938C294.562 133.594 295.312 136.484 295.656 139.609H290.078C289.703 137.266 289.094 135.062 288.25 133C287.438 130.938 286.344 129.141 284.969 127.609C283.594 126.047 281.938 124.828 280 123.953C278.062 123.047 275.797 122.594 273.203 122.594C270.984 122.594 269.016 122.969 267.297 123.719C265.578 124.469 264.062 125.469 262.75 126.719C261.469 127.969 260.375 129.438 259.469 131.125C258.562 132.781 257.828 134.547 257.266 136.422C256.703 138.297 256.281 140.219 256 142.188C255.75 144.125 255.625 146.016 255.625 147.859V157.844C255.625 159.688 255.75 161.594 256 163.562C256.281 165.531 256.703 167.453 257.266 169.328C257.828 171.203 258.562 172.984 259.469 174.672C260.375 176.328 261.469 177.797 262.75 179.078C264.062 180.328 265.578 181.328 267.297 182.078C269.016 182.828 270.984 183.203 273.203 183.203C275.828 183.203 278.109 182.781 280.047 181.938C282.016 181.062 283.672 179.859 285.016 178.328C286.391 176.797 287.484 175 288.297 172.938C289.141 170.875 289.734 168.656 290.078 166.281H295.656Z" fill="black"/>
<path d="M333.766 158.453H316.891V187H311.359V118.75H330.625C333.625 118.812 336.453 119.297 339.109 120.203C341.766 121.109 344.078 122.422 346.047 124.141C348.047 125.828 349.609 127.906 350.734 130.375C351.891 132.844 352.469 135.672 352.469 138.859C352.469 141.141 352.125 143.219 351.438 145.094C350.781 146.969 349.859 148.672 348.672 150.203C347.484 151.703 346.062 153.031 344.406 154.188C342.781 155.344 340.984 156.328 339.016 157.141L354.578 186.391V187H348.719L333.766 158.453ZM316.891 153.719H331.75C333.875 153.656 335.859 153.25 337.703 152.5C339.547 151.75 341.141 150.734 342.484 149.453C343.859 148.141 344.922 146.578 345.672 144.766C346.453 142.953 346.844 140.969 346.844 138.812C346.844 136.406 346.422 134.266 345.578 132.391C344.734 130.516 343.578 128.938 342.109 127.656C340.672 126.344 338.953 125.344 336.953 124.656C334.984 123.969 332.859 123.594 330.578 123.531H316.891V153.719Z" fill="black"/>
<path d="M404.547 154.281H374.453V182.125H409.141V187H368.875V118.75H408.953V123.672H374.453V149.406H404.547V154.281Z" fill="black"/>
<path d="M459.531 167.969H433.562L427.516 187H421.844L444.062 118.75H449.125L471.156 187H465.531L459.531 167.969ZM435.156 162.953H457.938L446.594 127.047L435.156 162.953Z" fill="black"/>
<path d="M528.156 123.672H506.406V187H500.922L500.969 123.672H479.172V118.75H528.156V123.672Z" fill="black"/>
<path d="M541.469 118.75H580.984V123.812H563.875V182.031H580.984V187H541.469V182.031H558.062V123.812H541.469V118.75Z" fill="black"/>
<path d="M618.625 178.516L637.234 118.75H643.188L621.297 187H616.094L594.203 118.75H600.156L618.625 178.516Z" fill="black"/>
<path d="M692.828 154.281H662.734V182.125H697.422V187H657.156V118.75H697.234V123.672H662.734V149.406H692.828V154.281Z" fill="black"/>
<path d="M295.656 391.281C295.281 394.344 294.516 397.203 293.359 399.859C292.203 402.484 290.672 404.781 288.766 406.75C286.859 408.688 284.594 410.203 281.969 411.297C279.375 412.391 276.453 412.938 273.203 412.938C270.484 412.938 268.016 412.531 265.797 411.719C263.609 410.875 261.656 409.734 259.938 408.297C258.25 406.859 256.781 405.172 255.531 403.234C254.281 401.297 253.25 399.219 252.438 397C251.625 394.75 251.016 392.422 250.609 390.016C250.234 387.609 250.031 385.219 250 382.844V372.953C250.031 370.578 250.234 368.188 250.609 365.781C251.016 363.375 251.625 361.062 252.438 358.844C253.25 356.594 254.281 354.5 255.531 352.562C256.781 350.625 258.25 348.938 259.938 347.5C261.656 346.031 263.609 344.891 265.797 344.078C268.016 343.234 270.484 342.812 273.203 342.812C276.516 342.812 279.469 343.359 282.062 344.453C284.688 345.547 286.953 347.078 288.859 349.047C290.766 350.984 292.281 353.281 293.406 355.938C294.562 358.594 295.312 361.484 295.656 364.609H290.078C289.703 362.266 289.094 360.062 288.25 358C287.438 355.938 286.344 354.141 284.969 352.609C283.594 351.047 281.938 349.828 280 348.953C278.062 348.047 275.797 347.594 273.203 347.594C270.984 347.594 269.016 347.969 267.297 348.719C265.578 349.469 264.062 350.469 262.75 351.719C261.469 352.969 260.375 354.438 259.469 356.125C258.562 357.781 257.828 359.547 257.266 361.422C256.703 363.297 256.281 365.219 256 367.188C255.75 369.125 255.625 371.016 255.625 372.859V382.844C255.625 384.688 255.75 386.594 256 388.562C256.281 390.531 256.703 392.453 257.266 394.328C257.828 396.203 258.562 397.984 259.469 399.672C260.375 401.328 261.469 402.797 262.75 404.078C264.062 405.328 265.578 406.328 267.297 407.078C269.016 407.828 270.984 408.203 273.203 408.203C275.828 408.203 278.109 407.781 280.047 406.938C282.016 406.062 283.672 404.859 285.016 403.328C286.391 401.797 287.484 400 288.297 397.938C289.141 395.875 289.734 393.656 290.078 391.281H295.656Z" fill="black"/>
<path d="M353.5 382.422C353.469 384.734 353.266 387.109 352.891 389.547C352.516 391.953 351.922 394.297 351.109 396.578C350.328 398.828 349.328 400.953 348.109 402.953C346.891 404.922 345.438 406.656 343.75 408.156C342.094 409.625 340.172 410.797 337.984 411.672C335.797 412.516 333.344 412.938 330.625 412.938C327.938 412.938 325.5 412.516 323.312 411.672C321.125 410.797 319.172 409.625 317.453 408.156C315.766 406.656 314.297 404.906 313.047 402.906C311.828 400.906 310.812 398.781 310 396.531C309.219 394.25 308.625 391.906 308.219 389.5C307.844 387.094 307.641 384.734 307.609 382.422V373.422C307.641 371.109 307.844 368.75 308.219 366.344C308.625 363.906 309.219 361.562 310 359.312C310.781 357.031 311.781 354.891 313 352.891C314.25 350.891 315.719 349.141 317.406 347.641C319.094 346.141 321.016 344.969 323.172 344.125C325.359 343.25 327.812 342.812 330.531 342.812C333.25 342.812 335.703 343.25 337.891 344.125C340.078 344.969 342.016 346.141 343.703 347.641C345.422 349.109 346.891 350.844 348.109 352.844C349.328 354.844 350.328 356.984 351.109 359.266C351.922 361.516 352.516 363.859 352.891 366.297C353.266 368.703 353.469 371.078 353.5 373.422V382.422ZM347.969 373.328C347.938 371.516 347.797 369.625 347.547 367.656C347.297 365.688 346.891 363.766 346.328 361.891C345.766 360.016 345.031 358.234 344.125 356.547C343.25 354.828 342.172 353.328 340.891 352.047C339.609 350.766 338.109 349.75 336.391 349C334.672 348.25 332.719 347.875 330.531 347.875C328.344 347.875 326.391 348.266 324.672 349.047C322.984 349.797 321.5 350.812 320.219 352.094C318.938 353.375 317.844 354.875 316.938 356.594C316.062 358.281 315.344 360.062 314.781 361.938C314.219 363.812 313.812 365.734 313.562 367.703C313.312 369.672 313.172 371.547 313.141 373.328V382.422C313.172 384.234 313.312 386.125 313.562 388.094C313.844 390.031 314.266 391.953 314.828 393.859C315.391 395.734 316.109 397.531 316.984 399.25C317.891 400.938 318.984 402.422 320.266 403.703C321.547 404.984 323.047 406.016 324.766 406.797C326.484 407.547 328.438 407.922 330.625 407.922C332.844 407.922 334.797 407.547 336.484 406.797C338.203 406.016 339.703 404.984 340.984 403.703C342.266 402.422 343.344 400.938 344.219 399.25C345.125 397.531 345.844 395.734 346.375 393.859C346.938 391.953 347.328 390.031 347.547 388.094C347.797 386.125 347.938 384.234 347.969 382.422V373.328Z" fill="black"/>
<path d="M367.75 412V343.75H384.25C388.625 343.812 392.531 344.672 395.969 346.328C399.406 347.984 402.312 350.203 404.688 352.984C407.062 355.766 408.875 359.016 410.125 362.734C411.375 366.422 412.031 370.359 412.094 374.547V381.25C412.031 385.438 411.375 389.391 410.125 393.109C408.875 396.797 407.062 400.031 404.688 402.812C402.312 405.594 399.406 407.812 395.969 409.469C392.531 411.094 388.625 411.938 384.25 412H367.75ZM373.375 348.531V407.266H384.25C387.906 407.203 391.109 406.453 393.859 405.016C396.641 403.578 398.953 401.672 400.797 399.297C402.641 396.891 404.031 394.141 404.969 391.047C405.938 387.922 406.438 384.656 406.469 381.25V374.406C406.438 371.031 405.938 367.797 404.969 364.703C404.031 361.609 402.641 358.875 400.797 356.5C398.953 354.125 396.641 352.219 393.859 350.781C391.109 349.344 387.906 348.594 384.25 348.531H373.375Z" fill="black"/>
<path d="M426.156 343.75H465.672V348.812H448.562V407.031H465.672V412H426.156V407.031H442.75V348.812H426.156V343.75Z" fill="black"/>
<path d="M524.828 412H519.25L487.938 354.391L487.891 412H482.312V343.75H487.891L519.203 401.266L519.25 343.75H524.828V412Z" fill="black"/>
<path d="M583.844 403.891C582.5 405.484 581.016 406.859 579.391 408.016C577.766 409.172 576.031 410.125 574.188 410.875C572.375 411.594 570.469 412.109 568.469 412.422C566.469 412.766 564.438 412.938 562.375 412.938C559.656 412.906 557.156 412.484 554.875 411.672C552.625 410.828 550.594 409.688 548.781 408.25C546.969 406.781 545.391 405.078 544.047 403.141C542.703 401.172 541.578 399.062 540.672 396.812C539.797 394.562 539.125 392.219 538.656 389.781C538.188 387.312 537.938 384.859 537.906 382.422V372.859C537.938 370.484 538.156 368.094 538.562 365.688C539 363.281 539.641 360.969 540.484 358.75C541.359 356.5 542.438 354.422 543.719 352.516C545 350.578 546.516 348.891 548.266 347.453C550.016 346.016 551.984 344.891 554.172 344.078C556.391 343.234 558.859 342.812 561.578 342.812C564.609 342.812 567.406 343.312 569.969 344.312C572.562 345.281 574.828 346.656 576.766 348.438C578.703 350.188 580.266 352.297 581.453 354.766C582.672 357.234 583.438 359.969 583.75 362.969H578.219C577.781 360.781 577.109 358.75 576.203 356.875C575.328 355 574.203 353.391 572.828 352.047C571.453 350.703 569.828 349.656 567.953 348.906C566.109 348.125 564 347.734 561.625 347.734C559.438 347.734 557.469 348.109 555.719 348.859C553.969 349.578 552.422 350.562 551.078 351.812C549.766 353.031 548.625 354.469 547.656 356.125C546.719 357.75 545.938 359.5 545.312 361.375C544.719 363.219 544.281 365.125 544 367.094C543.719 369.031 543.562 370.922 543.531 372.766V382.422C543.562 384.328 543.734 386.281 544.047 388.281C544.391 390.281 544.891 392.234 545.547 394.141C546.203 396.016 547.031 397.797 548.031 399.484C549.031 401.172 550.219 402.656 551.594 403.938C553 405.188 554.594 406.188 556.375 406.938C558.156 407.656 560.172 408.031 562.422 408.062C563.828 408.094 565.281 408.031 566.781 407.875C568.281 407.688 569.734 407.375 571.141 406.938C572.578 406.469 573.906 405.844 575.125 405.062C576.375 404.281 577.453 403.297 578.359 402.109L578.406 384.484H562.234V379.609H583.75L583.844 403.891Z" fill="black"/>
<path d="M294.344 568.75L294.391 615.016C294.328 618.109 293.781 621.047 292.75 623.828C291.75 626.609 290.328 629.047 288.484 631.141C286.641 633.203 284.406 634.859 281.781 636.109C279.156 637.328 276.219 637.938 272.969 637.938C269.688 637.938 266.734 637.328 264.109 636.109C261.484 634.891 259.25 633.234 257.406 631.141C255.562 629.047 254.125 626.609 253.094 623.828C252.062 621.047 251.531 618.109 251.5 615.016L251.594 568.75H256.891L257.031 615.016C257.062 617.359 257.438 619.625 258.156 621.812C258.875 623.969 259.906 625.891 261.25 627.578C262.594 629.234 264.25 630.562 266.219 631.562C268.188 632.562 270.438 633.062 272.969 633.062C275.5 633.062 277.734 632.562 279.672 631.562C281.641 630.562 283.281 629.234 284.594 627.578C285.938 625.891 286.953 623.969 287.641 621.812C288.359 619.625 288.75 617.359 288.812 615.016L288.906 568.75H294.344Z" fill="black"/>
<path d="M355.188 573.672H333.438V637H327.953L328 573.672H306.203V568.75H355.188V573.672Z" fill="black"/>
<path d="M391.422 608.453H374.547V637H369.016V568.75H388.281C391.281 568.812 394.109 569.297 396.766 570.203C399.422 571.109 401.734 572.422 403.703 574.141C405.703 575.828 407.266 577.906 408.391 580.375C409.547 582.844 410.125 585.672 410.125 588.859C410.125 591.141 409.781 593.219 409.094 595.094C408.438 596.969 407.516 598.672 406.328 600.203C405.141 601.703 403.719 603.031 402.062 604.188C400.438 605.344 398.641 606.328 396.672 607.141L412.234 636.391V637H406.375L391.422 608.453ZM374.547 603.719H389.406C391.531 603.656 393.516 603.25 395.359 602.5C397.203 601.75 398.797 600.734 400.141 599.453C401.516 598.141 402.578 596.578 403.328 594.766C404.109 592.953 404.5 590.969 404.5 588.812C404.5 586.406 404.078 584.266 403.234 582.391C402.391 580.516 401.234 578.938 399.766 577.656C398.328 576.344 396.609 575.344 394.609 574.656C392.641 573.969 390.516 573.594 388.234 573.531H374.547V603.719Z" fill="black"/>
<path d="M462.203 604.281H432.109V632.125H466.797V637H426.531V568.75H466.609V573.672H432.109V599.406H462.203V604.281Z" fill="black"/>
<path d="M526.281 616.281C525.906 619.344 525.141 622.203 523.984 624.859C522.828 627.484 521.297 629.781 519.391 631.75C517.484 633.688 515.219 635.203 512.594 636.297C510 637.391 507.078 637.938 503.828 637.938C501.109 637.938 498.641 637.531 496.422 636.719C494.234 635.875 492.281 634.734 490.562 633.297C488.875 631.859 487.406 630.172 486.156 628.234C484.906 626.297 483.875 624.219 483.062 622C482.25 619.75 481.641 617.422 481.234 615.016C480.859 612.609 480.656 610.219 480.625 607.844V597.953C480.656 595.578 480.859 593.188 481.234 590.781C481.641 588.375 482.25 586.062 483.062 583.844C483.875 581.594 484.906 579.5 486.156 577.562C487.406 575.625 488.875 573.938 490.562 572.5C492.281 571.031 494.234 569.891 496.422 569.078C498.641 568.234 501.109 567.812 503.828 567.812C507.141 567.812 510.094 568.359 512.688 569.453C515.312 570.547 517.578 572.078 519.484 574.047C521.391 575.984 522.906 578.281 524.031 580.938C525.188 583.594 525.938 586.484 526.281 589.609H520.703C520.328 587.266 519.719 585.062 518.875 583C518.062 580.938 516.969 579.141 515.594 577.609C514.219 576.047 512.562 574.828 510.625 573.953C508.688 573.047 506.422 572.594 503.828 572.594C501.609 572.594 499.641 572.969 497.922 573.719C496.203 574.469 494.688 575.469 493.375 576.719C492.094 577.969 491 579.438 490.094 581.125C489.188 582.781 488.453 584.547 487.891 586.422C487.328 588.297 486.906 590.219 486.625 592.188C486.375 594.125 486.25 596.016 486.25 597.859V607.844C486.25 609.688 486.375 611.594 486.625 613.562C486.906 615.531 487.328 617.453 487.891 619.328C488.453 621.203 489.188 622.984 490.094 624.672C491 626.328 492.094 627.797 493.375 629.078C494.688 630.328 496.203 631.328 497.922 632.078C499.641 632.828 501.609 633.203 503.828 633.203C506.453 633.203 508.734 632.781 510.672 631.938C512.641 631.062 514.297 629.859 515.641 628.328C517.016 626.797 518.109 625 518.922 622.938C519.766 620.875 520.359 618.656 520.703 616.281H526.281Z" fill="black"/>
<path d="M582.531 637H577.234V604.281H545.172V637H539.875V568.75H545.172V599.406H577.234V568.75H582.531V637Z" fill="black"/>
<path d="M643.469 573.672H621.719V637H616.234L616.281 573.672H594.484V568.75H643.469V573.672Z" fill="black"/>
<path d="M50 146.874C50 69.213 69.213 50 146.874 50H200V126.933H146.874C95.9695 126.933 68.4142 126.933 68.4142 146.874V153.126C68.4142 173.067 95.9695 173.067 146.874 173.067H200V250H146.874C69.213 250 50 230.787 50 153.126V146.874Z" fill="black"/>
<path d="M50 367.969C50 275 50 275 142.969 275H200V316.221H142.969C72.9552 316.221 65.0554 316.221 65.0554 367.969V382.031C65.0554 433.779 72.9552 433.779 142.969 433.779H200V475H142.969C50 475 50 475 50 382.031V367.969Z" fill="black"/>
<path d="M109.486 700C52.0798 700 50 697.92 50 640.514V500H69.0953V640.514C69.0953 669.217 80.783 660.263 109.486 660.263H140.514C169.217 660.263 180.905 669.217 180.905 640.514V500H200V640.514C200 697.92 197.92 700 140.514 700H109.486Z" fill="black"/>
</svg>
